<?xml version="1.0" encoding="utf-8"?>
<!-- Generator: Adobe Illustrator 22.0.1, SVG Export Plug-In . SVG Version: 6.00 Build 0)  -->
<svg version="1.1" id="Layer_1" xmlns="http://www.w3.org/2000/svg" xmlns:xlink="http://www.w3.org/1999/xlink" x="0px" y="0px"
	 viewBox="0 0 1000 1000" style="enable-background:new 0 0 1000 1000;" xml:space="preserve">
<style type="text/css">
	.st0{fill:#47694F;}
	.st1{fill:#E2D8CD;}
	.st2{fill:#FFF2D1;}
	.st3{fill:#D0D9D2;}
	.st4{fill:#C9D2DE;}
	.st5{fill:#E1D1D4;}
	.st6{fill:#FEE5CD;}
	.st7{fill:#9B7E5C;}
	.st8{fill:#FCD45E;}
	.st9{fill:#66826C;}
	.st10{fill:#496D91;}
	.st11{fill:#996872;}
	.st12{fill:#FAAE6A;}
	.st13{fill:#F3C300;}
	.st14{fill:#FFE08D;}
	.st15{fill:#6F4C1D;}
	.st16{fill:#A98F71;}
	.st17{fill:#C6B29E;}
	.st18{fill:#295135;}
	.st19{fill:#BCC9BF;}
	.st20{fill:#7A927F;}
	.st21{fill:#6C2B3D;}
	.st22{enable-background:new    ;}
	.st23{clip-path:url(#SVGID_6_);}
	.st24{clip-path:url(#SVGID_8_);fill:#996872;}
	.st25{fill:#CCB0B5;}
	.st26{fill:#F6902E;}
	.st27{fill:#003764;}
	.st28{fill:#7C94AE;}
	.st29{fill:#95A8BE;}
	.st30{fill:#2B5A81;}
</style>
<g>
	<g>
		<defs>
			<rect id="SVGID_1_" x="-1725.4" y="-3672" width="6149.9" height="7904.1"/>
		</defs>
		<clipPath id="SVGID_2_">
			<use xlink:href="#SVGID_1_"  style="overflow:visible;"/>
		</clipPath>
	</g>
</g>
<g>
	<g>
		<defs>
			<rect id="SVGID_3_" x="-1725.4" y="-3672" width="6149.9" height="7904.1"/>
		</defs>
		<clipPath id="SVGID_4_">
			<use xlink:href="#SVGID_3_"  style="overflow:visible;"/>
		</clipPath>
	</g>
</g>
<g>
	<path class="st0" d="M145.4,737.3c-16.4,0-25.4,8.8-26.7,26.4c-0.9,9.5,3.6,22.2,13.5,38.2c-21-14.2-31.7-27-32.3-38.2
		c-0.6-15,3.4-28.7,11.9-40.8c8.5-12.1,19.8-18.2,33.8-18.2c0-24.3,16.3-45.2,49.1-62.8c13.7-7.3,30-13.6,49-18.9v81.5h32.5v32.7
		H145.4z M210.9,704.6v-38c-7.6,4.7-15.1,9.3-22.7,13.8c-7.3,6.1-10.6,14.2-10.1,24.3H210.9z"/>
	<path class="st0" d="M254.4,737.3v-32.7H298v-65.4c4.2-3.1,10.5-8.3,19-15.9c3.9-3.9,8.5-9.5,13.8-16.8v98.1h33v32.7H254.4z
		 M280.4,765.4c5.3,0,9.7,2.1,13,6.3c3.4,4.2,5.2,8.6,5.5,13.4c0.6,12-5.6,18.9-18.4,20.6c-6.4,0-11.4-2-14.8-6.1
		c-3.5-4-5.3-8.9-5.3-14.5C260.3,772,267,765.4,280.4,765.4 M331.1,765.8c5.6,0,10.3,1.8,14,5.6c3.7,3.7,5.8,8.4,6.1,14.2
		c0.3,5.7-1.5,10.6-5.5,14.6c-2.8,3.7-7.7,5.5-14.7,5.5c-12.8,0-19.3-6.7-19.3-20.1c0-5.7,1.5-10.4,4.7-14.2
		C319.5,767.7,324.4,765.8,331.1,765.8"/>
	<rect x="352.9" y="704.6" class="st0" width="43.5" height="32.7"/>
	<path class="st0" d="M385.5,737.3v-98c14.3-6.4,25.2-17.4,32.8-32.8v32.8h130.6c19.8,0,35.7,6.4,47.7,19.2
		c11.2,12.3,16.9,27.6,17.2,46h32.7v32.7H385.5z M418.3,704.6h163.2c-2-21.7-12.8-32.5-32.6-32.5H418.3V704.6z"/>
	<path class="st0" d="M755.8,558.1v146.5h32.6v32.7H625.1v-32.7h98v-32.5h-65.2v-32.8c0-24.6,16.4-45.5,49-62.8
		C720.5,569.3,736.9,563.1,755.8,558.1 M682.1,489.8c5,0,9.5,2,13.4,5.9c3.1,4.5,4.8,9.2,5,14.3c0.3,5.3-1.2,10-4.6,14.2
		c-2.5,3.1-7.1,5-13.8,5.9c-6.2,0-11.1-2-14.7-5.9c-3.6-3.9-5.6-8.7-5.9-14.2c-0.2-5.3,1.5-10,5.3-14.1
		C670.6,491.8,675.6,489.8,682.1,489.8 M723.1,639.3v-38.1c-7.2,4.4-14.6,8.9-22.1,13.4c-7.2,5.8-10.7,14.1-10.4,24.7H723.1z
		 M732.7,489.8c5.6,0,10.2,1.9,13.8,5.8c3.6,3.8,5.6,8.5,5.8,14.2c0.3,5.6-1.2,10.3-4.4,14c-3.2,3.7-8.3,5.5-15.3,5.5
		c-6.5,0-11.3-1.8-14.7-5.5c-3.3-3.7-5-8.3-5-14c0-5.6,1.7-10.4,5-14.2C721.5,491.7,726.3,489.8,732.7,489.8"/>
	<path class="st0" d="M832.6,737.3h-65.2v-32.7h32.4V443.7c8.7,15.6,19.6,26.5,32.8,32.7V737.3z"/>
	<path class="st0" d="M881.6,463.3c8.1-8.9,13.7-15.5,16.8-19.7v293.6h-32.7v-261C872.7,471,878,466.7,881.6,463.3"/>
	<path class="st0" d="M331.3,885.5c3.9-0.2,6.2-0.6,7.2-1.2c0.6-0.4,1.6-2,2.9-4.7c2.5-5.3,5.7-12.8,9.7-22.3l21.8-53.4h9l27.9,66.2
		c3.6,8.3,5.9,12.9,6.7,13.7c0.9,0.8,3.4,1.3,7.9,1.6v5.6c-6.7-0.3-13-0.5-19-0.5c-7.1,0-13.9,0.1-20.2,0.5v-5.6
		c4.9-0.2,7.7-0.5,8.4-0.8c0.8-0.4,1.1-0.9,1.1-1.8c0-0.8-0.9-3.3-2.6-7.8l-4-10.3c-5.1-0.2-10.9-0.2-17.1-0.2
		c-5.5,0-10.5,0.1-15,0.2l-2.7,6.9c-0.8,1.9-1.7,4.7-2.7,8.4c-0.2,0.9-0.4,1.6-0.4,2.3c0,1,0.4,1.7,1.2,2c0.8,0.4,3.7,0.7,8.6,1.2
		v5.6c-4-0.3-9-0.5-15-0.5c-5.7,0-10.2,0.1-13.6,0.5V885.5z M371.7,825.7l-13,31.8c3.8,0.2,8,0.3,12.5,0.3c4.8,0,9.4-0.1,13.8-0.3
		L371.7,825.7z"/>
	<path class="st0" d="M429.1,808.6V805c5.9-0.8,10.5-1.6,13.9-2.5c3.4-0.8,7.1-2,11-3.5l1.6,1.4c-0.6,14.7-0.9,35.1-0.9,61.5
		c0,5.3,0.1,10.7,0.3,16.1c0.1,3.5,0.3,5.5,0.6,6c0.3,0.5,0.8,1,1.5,1.3c0.6,0.3,3.1,0.6,7.2,0.7v5.1l-6.5-0.2
		c-4.1-0.2-7.4-0.2-10.2-0.2l-18.4,0.4v-5.1l4.6-0.2c2-0.1,3.4-0.5,4-1.2c0.6-0.6,1-3.2,1.1-7.7c0.2-6.2,0.3-15,0.3-26.5l0-26.3
		c-0.1-8-0.3-12.5-0.7-13.6c-0.1-0.5-0.5-0.8-0.9-1.1C436.6,809,433.9,808.7,429.1,808.6"/>
	<path class="st0" d="M500.2,907.7l-2.9-2.8l4.1-3.4c4.5-3.7,9.5-6.8,14.9-9.1c-13.3,0-23.9-4-31.8-11.8c-8-7.9-12-18.5-12-32
		c0-9.5,2-17.6,5.9-24.3c3.9-6.7,9.3-11.8,16.2-15.4c6.9-3.6,15.8-5.4,26.7-5.4c10.5,0,19,1.7,25.7,5.2c6.6,3.4,11.8,8.1,15.4,14.3
		c3.6,6.1,5.4,13.6,5.4,22.4c0,9.5-1.9,17.7-5.8,24.6c-3.8,7-9,12.3-15.6,15.9c-6.5,3.6-15.6,5.8-27,6.4c3.1,0.4,6.1,1.1,8.8,1.8
		l16.1,5.4c4.8,1.6,8.7,2.6,11.5,3.3c1.7,0.3,3.3,0.5,4.7,0.5c1.7,0,3.4-0.2,4.9-0.6c1.5-0.5,3.7-1.3,6.7-2.7v3.8l-7.1,5.1
		c-3.4,2.3-5.8,3.9-7,4.5c-0.9,0.4-1.9,0.5-3,0.5c-2.7,0-5.9-0.3-9.4-1c-3.4-0.8-9.1-2.5-17-5.1c-5.7-2-9.6-3.2-11.8-3.7
		c-2.2-0.5-4-0.7-5.6-0.7c-1.7,0-3.3,0.3-4.9,0.9C504.7,904.7,502.7,905.9,500.2,907.7 M521.7,885.3c8.2,0,14.8-3,19.6-9.1
		c4.9-6,7.4-15.3,7.4-27.7c0-13-2.8-22.9-8.4-29.8c-4.6-5.6-11.6-8.4-21-8.4c-8.9,0-15.7,2.9-20.5,8.7c-4.8,5.8-7.3,14.9-7.3,27
		c0,8.7,1.3,16.2,4,22.3c2.6,6,6.1,10.4,10.1,13.1C509.7,884,515.1,885.3,521.7,885.3"/>
	<path class="st0" d="M633,886.1v5.1l-4.8-0.2c-2.5-0.2-5-0.2-7.5-0.2c-3.9,0-7.6,0.1-11.1,0.4l-0.6-0.7l0.7-8.4l-12.9,9.6
		c-2.3,0.5-4.3,0.8-6.1,0.8c-4.4,0-7.7-1.2-10.1-3.8c-2.4-2.6-3.6-6.4-3.6-11.4c0-6.1,1.6-10.5,4.9-12.9c4.2-3.3,13.4-6.2,27.8-8.8
		c-0.1-4.8-0.9-8.4-2.5-10.5c-2.3-3-5.8-4.5-10.5-4.5c-1.1,0-2.3,0.2-3.4,0.4c-1.2,0.3-2.4,0.7-3.6,1.3l-2.8,6.6l-4.2-1.1l0.2-2.8
		l-0.1-2.7l-0.1-2.5c6.3-3.9,10.8-6.3,13.6-7.3c2-0.7,4.8-1.1,8.4-1.1c4.8,0,8.8,0.8,11.9,2.2c3.1,1.5,5.3,3.5,6.7,6
		c1.4,2.5,2.1,6.2,2.1,11c0,2-0.1,5.6-0.3,10.8c-0.2,5.3-0.2,9.6-0.2,12.9c0,5.1,0.2,8.3,0.4,9.4c0.2,0.7,0.6,1.2,1.2,1.5
		C627.1,885.3,629.3,885.7,633,886.1 M609.7,860.7c-7.3,1.6-12,3.3-14.2,5.2c-2.2,1.8-3.3,4.3-3.3,7.4c0,2.5,0.7,4.5,2.1,5.9
		c1.4,1.5,3.2,2.2,5.3,2.2c3.3,0,6.6-1.9,10.1-5.5V860.7z"/>
	<path class="st0" d="M647,871.2c0.2,5.3,0.4,8.3,0.7,8.9c0.9,1.7,2.6,3.2,5.1,4.4c2.5,1.3,5.3,1.9,8.6,1.9c4,0,6.9-0.8,8.9-2.5
		c2-1.7,3-3.9,3-6.6c0-2.4-0.7-4.2-2.1-5.6c-1.4-1.4-4.5-2.5-9.2-3.6c-7.1-1.5-11.8-3-13.9-4.1c-2.2-1.2-3.9-2.9-5.2-5.2
		c-1.2-2.3-1.9-5-1.9-8.2c0-3.8,0.9-7.1,2.9-10c1.9-2.9,4.6-5.2,8.1-6.9c3.5-1.7,8.2-2.5,14-2.5c6,0,11.7,1,16.8,3
		c-0.5,3.3-0.9,8.6-1.1,15.6H677c-0.3-4.4-0.6-7-1.1-7.8c-0.6-1.1-1.7-2.2-3.5-3c-2.3-1.1-4.9-1.7-7.6-1.7c-3.4,0-6.1,0.8-8,2.3
		c-1.9,1.5-2.9,3.5-2.9,5.8c0,2.2,0.9,3.9,2.6,5.1c1.7,1.3,5.8,2.6,12.3,3.8c4.5,0.8,7.6,1.6,9.3,2.3c2.9,1.2,5.1,3.1,6.6,5.4
		c1.5,2.3,2.3,5.3,2.3,9c0,6.9-2.7,12.3-8.1,16c-5.4,3.7-11.7,5.5-19.2,5.5c-2.5,0-5.2-0.2-8.2-0.8c-3-0.6-6.3-1.4-9.8-2.5l-0.9-1
		c0.5-3.6,0.8-9.2,0.9-16.9H647z"/>
	<path class="st0" d="M702.9,871.2c0.2,5.3,0.5,8.3,0.8,8.9c0.9,1.7,2.6,3.2,5.1,4.4c2.5,1.3,5.3,1.9,8.6,1.9c4,0,7-0.8,9-2.5
		c2-1.7,3-3.9,3-6.6c0-2.4-0.7-4.2-2.2-5.6c-1.4-1.4-4.4-2.5-9.2-3.6c-7.1-1.5-11.8-3-13.9-4.1c-2.2-1.2-3.8-2.9-5.1-5.2
		c-1.3-2.3-1.9-5-1.9-8.2c0-3.8,1-7.1,2.9-10c1.9-2.9,4.5-5.2,8.1-6.9c3.5-1.7,8.2-2.5,14-2.5c6.1,0,11.7,1,16.9,3
		c-0.5,3.3-0.9,8.6-1.1,15.6H733c-0.3-4.4-0.6-7-1.1-7.8c-0.6-1.1-1.7-2.2-3.5-3c-2.4-1.1-4.9-1.7-7.6-1.7c-3.4,0-6.1,0.8-8,2.3
		c-1.9,1.5-2.9,3.5-2.9,5.8c0,2.2,0.9,3.9,2.6,5.1c1.7,1.3,5.8,2.6,12.3,3.8c4.5,0.8,7.6,1.6,9.3,2.3c2.9,1.2,5.1,3.1,6.6,5.4
		c1.5,2.3,2.3,5.3,2.3,9c0,6.9-2.7,12.3-8.1,16c-5.4,3.7-11.8,5.5-19.2,5.5c-2.4,0-5.2-0.2-8.2-0.8c-3-0.6-6.2-1.4-9.8-2.5l-1-1
		c0.5-3.6,0.8-9.2,1-16.9H702.9z"/>
	<path class="st0" d="M751.6,891.2V886c4.7-0.2,7.3-0.4,8.1-0.9c0.7-0.4,1.2-1.5,1.3-3.5c0.4-2.5,0.5-8.3,0.5-17.2
		c0-3.8,0-7.3-0.2-10.6l-0.2-7.3c0-2.4-0.3-3.9-0.8-4.4c-0.5-0.6-1.9-0.9-4.2-1l-4.7-0.1v-4.7c9.9-0.8,18.1-2.5,24.5-5.3l1.6,1.3
		c-0.7,7.9-0.9,19.3-0.9,34.3c0,8.7,0.2,14,0.4,15.8c0.2,1.2,0.6,2.1,1.1,2.4c0.5,0.4,3.3,0.7,8,1.1v5.1c-7.4-0.3-13.1-0.4-17.2-0.4
		C766.9,890.8,761.1,890.9,751.6,891.2 M768.7,801.8c2.6,0,4.9,0.9,6.8,2.8c1.9,1.9,2.8,4.2,2.8,6.8c0,2.6-0.9,4.9-2.8,6.7
		c-1.9,1.9-4.2,2.8-6.8,2.8c-2.6,0-4.9-0.9-6.8-2.8c-1.9-1.9-2.8-4.1-2.8-6.7c0-2.6,0.9-4.9,2.8-6.8
		C763.8,802.7,766,801.8,768.7,801.8"/>
	<path class="st0" d="M793.6,891.2V886c4.2-0.2,6.6-0.4,7.2-0.8c0.6-0.4,0.9-1.1,1.1-2.1c0.3-2,0.5-6.9,0.5-14.3
		c0-15.9-0.2-24.5-0.6-25.8c-0.3-1.1-1.7-1.7-4.3-1.7l-3.9-0.1v-4.7c5-0.5,9.3-1.2,12.8-2.1c3.6-0.7,6.8-1.7,9.7-2.9
		c0.6-0.3,1-0.3,1.3-0.3c0.5,0,0.8,0.5,0.8,1.6c0,0.7,0,1.9-0.2,3.2c-0.1,0.6-0.1,1.6-0.1,3.1v2.2l10.1-7.6c2.2-1.6,5.4-2.4,9.7-2.4
		c4.4,0,7.9,0.9,10.5,2.6c2.6,1.7,4.6,4.4,5.9,8.2l10.4-8.3c2-1.6,4.8-2.4,8.4-2.4c6.4,0,11.2,1.6,14.2,4.8
		c3.1,3.2,4.5,8.4,4.5,15.5l-0.1,5.1c-0.2,5.7-0.3,10.7-0.3,15.2c0,5.9,0.2,9.7,0.5,11.4c0.3,1,0.8,1.6,1.3,1.9
		c0.6,0.4,2.9,0.8,6.9,1v5.1c-5.1-0.3-9.6-0.4-13.4-0.4c-3.6,0-7.5,0.1-11.4,0.4l-0.8-1.2c1.1-8.9,1.6-17.5,1.6-26
		c0-10-0.8-16.2-2.3-18.7c-1.6-2.5-4.3-3.7-8.2-3.7c-2.5,0-4.8,0.6-6.7,1.9c-1.9,1.3-3.2,2.7-3.9,4.4c-0.4,1.1-0.6,4.7-0.6,10.8
		c0,10.9,0.2,18.4,0.4,22.6c0.1,1.9,0.5,3,1.1,3.6c0.6,0.5,3.2,0.9,7.8,1.2v5.1c-5.4-0.3-10.6-0.4-15.7-0.4
		c-6.4,0-12.2,0.1-17.3,0.4V886c4.1,0,6.4-0.6,7.1-1.7c0.7-1.2,1-6.3,1-15.4c0-10.5-0.2-17-0.6-19.5c-0.4-2.6-1.4-4.5-3-5.8
		c-1.6-1.3-3.7-2-6.5-2c-2.1,0-3.9,0.5-5.6,1.4c-1.7,0.9-3.1,2.3-4.3,4c-0.7,0.9-1,2.4-1,4.4l0.1,2.4c0.1,1.1,0.2,4.4,0.2,9.7l0,7.3
		c0,7,0.1,11.1,0.3,12.4c0.2,0.8,0.5,1.4,1,1.8c0.6,0.4,2.8,0.7,6.8,1.1v5.1c-4.9-0.3-10.3-0.4-16.1-0.4
		C808.1,890.8,802.6,890.9,793.6,891.2"/>
	<path class="st1" d="M361.6,339.8C449,203.6,581.2,212.9,581.2,212.9S523.2,332.2,361.6,339.8"/>
	<path class="st2" d="M361.6,339.8c161.6,7.5,219.7,126.8,219.7,126.8S449,476.1,361.6,339.8"/>
	<path class="st3" d="M361.6,86.1c0,0,74.4,109.9,0,253.7C287.3,196,361.6,86.1,361.6,86.1"/>
	<path class="st4" d="M361.6,339.8c74.4,143.7,0,253.6,0,253.6S287.3,483.5,361.6,339.8"/>
	<path class="st5" d="M142,213c0,0,132.3-9.4,219.6,126.8C200,332.2,142,213,142,213"/>
	<path class="st6" d="M142,466.6c0,0,58-119.3,219.6-126.8C274.3,476,142,466.6,142,466.6"/>
	<path class="st7" d="M361.6,339.8c74.6-116.4,187.6-108.4,187.6-108.4S499.7,333.3,361.6,339.8"/>
	<path class="st8" d="M361.6,339.8c138,6.4,187.7,108.3,187.7,108.3S436.2,456.2,361.6,339.8"/>
	<path class="st9" d="M361.6,123.1c0,0,63.5,93.8,0,216.7C298.1,216.9,361.6,123.1,361.6,123.1"/>
	<path class="st10" d="M361.6,339.8c63.5,122.8,0,216.6,0,216.6S298.1,462.6,361.6,339.8"/>
	<path class="st11" d="M174.1,231.5c0,0,112.9-8.1,187.6,108.3C223.5,333.3,174.1,231.5,174.1,231.5"/>
	<path class="st12" d="M174.1,448.1c0,0,49.5-101.9,187.6-108.3C287,456.1,174.1,448.1,174.1,448.1"/>
	<path class="st13" d="M587.3,232l-5.7,3.3c0,0-47.7,98.2-181,104.5c133.2,6.2,181,104.5,181,104.5l5.7,3.3
		c18.5-31.7,28.9-68.5,28.9-107.7C616.3,300.6,605.8,263.7,587.3,232"/>
	<path class="st2" d="M592.4,278.4c-3,1.8-9.8,2.5-9.8,2.5c-24.8-1.2-22.5,4.5-22.5,4.5c-0.3,2.8-1.9,2.8-1.9,2.8s-1.7,5.9-2.9,9.1
		c-0.4,3,2.6,2.8,2.6,2.8l3.7-0.6c-3.1,7.6,1.7,5.3,1.7,5.3l0.9-4.4l3.4-1.2c0,0,9,2.2,11.3,3.1c2.3,0.9,13.9,8.3,13.9,8.3
		c1.7,4.1,8.1,8.7,8.1,8.7c1.8,3.6,5.4,7,9.5,9.9c-0.9-17.5-4.2-34.3-9.5-50.2C598.6,280.4,595.6,278.7,592.4,278.4"/>
	<path class="st14" d="M588.5,323c2.6-11.8-5.5-6.9-5.5-6.9s-2.4-1.6-6.7-3.6c-4.4,3.3-9.6,0-15.4-0.5c-5,3.1-16.5,4.2-16.5,4.2
		c-41.9-2.1-37.9,7.6-37.9,7.6c-0.6,4.7-3.2,4.7-3.2,4.7s-2.9,9.9-5,15.4c-0.6,5,4.5,4.7,4.5,4.7l6.3-1c-5.2,12.8,2.9,8.9,2.9,8.9
		l1.5-7.4l5.8-2.1c0,0,15.2,3.7,19.1,5.3c4,1.6,23.6,14.1,23.6,14.1c2.9,6.9,13.6,14.7,13.6,14.7c4.2,8.5,14.9,16.6,24.4,22.5
		c5.8-16.5,9.3-34,10.4-52.1c-1.3-1.5-2.3-2.8-2.9-3.9C603.9,341,592.4,329.3,588.5,323"/>
	<path class="st15" d="M570.2,201.9l-6,3.5c0,0-114.6-8.1-190.4,109.9c64.4-124.6,0-219.8,0-219.8l0.2-7
		C457.8,88.6,531,134.1,570.2,201.9"/>
	<path class="st7" d="M506.3,141.5c-9.7-7.7-20.1-14.3-31.1-20c-10.6-4.1-22.2-6.4-34.3-6.4c-16.4,0-31.6,4.1-44.8,11.2
		c2.1,5,4.2,11,6.2,17.6c11.1-6.7,24.4-10.7,38.6-10.7c39.4,0,71.3,30,71.3,67.1c0,1.3-0.1,2.5-0.2,3.8c7.4-1.6,13.9-2.5,19.4-3.1
		c0-0.2,0.1-0.5,0.1-0.7C531.4,177.5,521.8,156.8,506.3,141.5"/>
	<path class="st7" d="M395.3,273.9c1.3,0.8,2.6,1.4,3.9,2.1c4.1-5.2,8.3-10,12.5-14.5c-3.5-1.5-7-3.3-10.1-5.3
		C399.7,262,397.6,267.9,395.3,273.9"/>
	<path class="st16" d="M440.9,133.2c-14.2,0-27.4,3.9-38.6,10.7c2,6.6,3.8,14,5.2,22.1c8.8-7.6,20.5-12.2,33.4-12.2
		c27.3,0,49.5,20.8,49.5,46.5c0,3.6-0.5,6.9-1.2,10.3c8.1-2.9,15.9-5,22.8-6.5c0.1-1.3,0.2-2.5,0.2-3.8
		C512.2,163.3,480.2,133.2,440.9,133.2"/>
	<path class="st16" d="M401.5,256.2c3.2,2,6.6,3.7,10.1,5.3c5.6-6,11.2-11.2,17-16.1c-8.3-2-15.7-5.9-21.8-11.3
		C405.5,241.3,403.8,248.6,401.5,256.2"/>
	<path class="st17" d="M440.9,153.8c-12.9,0-24.6,4.7-33.4,12.2c3.3,19.2,4.2,42.3-0.6,68c6,5.4,13.5,9.4,21.8,11.3
		c20.6-17.4,41.7-28.2,60.5-34.8c0.8-3.3,1.2-6.7,1.2-10.3C490.4,174.6,468.2,153.8,440.9,153.8 M440.9,220.9
		c-12,0-21.8-9.2-21.8-20.6c0-11.4,9.8-20.5,21.8-20.5c12,0,21.8,9.2,21.8,20.5C462.7,211.7,452.9,220.9,440.9,220.9"/>
	<path class="st1" d="M440.9,179.8c-12,0-21.8,9.2-21.8,20.5c0,11.4,9.8,20.6,21.8,20.6c12,0,21.8-9.2,21.8-20.6
		C462.7,189,452.9,179.8,440.9,179.8"/>
	<path class="st18" d="M347.2,90.7l-0.2,6.9c0,0-63,93.2,0,215.3c-74.1-115.7-186.4-107.6-186.4-107.6l-6-3.4
		C193,135.4,264.8,90.7,347,90.7H347.2z"/>
	<polygon class="st19" points="277,164.9 277.1,156.1 276.5,155.7 273.4,164.3 	"/>
	<polygon class="st19" points="291.7,182.2 292.1,178.9 287.1,176.5 284.1,182.3 	"/>
	<path class="st19" d="M319.3,247.3c-0.5-1.8-0.8-3.5-1.2-5.2l-3.2,0.3C316.2,243.8,317.7,245.4,319.3,247.3"/>
	<polygon class="st19" points="302.8,195.9 296.7,193.9 294.4,197.2 	"/>
	<path class="st19" d="M309.4,237.3l5.4-3.5c-1.4-1.2-2.1-1.9-2.1-1.9l0.4-1l-12.7,0.1l-9.5,12.3c0.5,0.4,1,0.8,1.5,1.2l14.9-8.6
		C307.9,236.3,308.7,236.8,309.4,237.3"/>
	<path class="st19" d="M286.3,231.1l25.8-9.4l-5.4-0.2l-2.1,1.6l0.6-1.7l-28.2-1.2l-10.5,6.4c1.3,0.8,2.7,1.5,3.9,2.3l21.6-6.2
		l-13.5,11.4c1.2,0.8,2.5,1.7,3.7,2.7l16.1-5.8L286.3,231.1z"/>
	<polygon class="st19" points="307.6,210.3 301.8,209.1 299,212.6 	"/>
	<polygon class="st19" points="259,142.6 258.8,143.8 259.2,143.9 	"/>
	<path class="st19" d="M282.2,217.1l16.2-4.4l1.2-4.2l-33.6-7l23.7-3.7l0.7-6.1l-9.7-3.2l-4.1,7.7l0.1-9l-10.3-3.4l-1.4,3.9
		l-0.7-4.7l-1.8-0.6l1.7,0l-2.5-18.7l-4.2-2.1l4,0.6l-2.5-18.1l-0.5-0.3l-5.9,35.7l-11.2-42.3l-1.2,36l-14-38.8c0,0-0.1,0.1-0.2,0.2
		l0.6,33.2l-10.1-26.2c-1.8,1.4-3.5,2.8-5.2,4.3l1.3,15.7l-7-10.7c-2,1.7-3.9,3.5-5.7,5.3l1.5,4.2l-2.5-3.1c-3.2,3.2-6.4,6.5-9.4,10
		l7.7-2.6l-9.4,4.6c-1.9,2.3-3.8,4.6-5.7,6.9l32-6.9l-39.7,17.6c-0.2,0.3-0.3,0.6-0.5,0.9l54.8-9.7l-44.5,17.1l57.2-10.1l-36.9,15.6
		l51.1-7.6L222.5,208c1.4,0.4,2.9,0.8,4.4,1.3l37.5-7.7l-24.7,12.2c1.5,0.6,2.9,1.1,4.4,1.8l30.4-6.5l-21.7,10.3
		c1.7,0.8,3.4,1.6,5.1,2.5l26.3-6L282.2,217.1z"/>
	<polygon class="st19" points="293.5,167.6 293.5,167 292.5,166.3 291.9,167.3 	"/>
	<polygon class="st19" points="276.9,182.4 276.9,171.4 271.8,168.9 267,182.5 	"/>
	<path class="st20" d="M259.9,128l32.9,26.2l-33.6-10.2l-0.4-0.1l-0.5-0.2l0.5,0.3l0.5,0.3l17.3,11.4l0.6,0.4l15.4,10.2l1,0.7
		l1.2,0.8l-1.3-0.2l-1.6-0.3l-14.9-2.4l-3.6-0.6l-11.8-1.9l-4-0.7l4.2,2.1l10,5l5.1,2.5l10.2,5.1l4.9,2.5l6.4,3.1l-6.7,0.1l-7.6,0.1
		l-7.2,0.1l-9.9,0.1l-2.6,0l-1.7,0l1.8,0.6l2.1,0.7l10.3,3.4l4,1.3l9.7,3.2l6.2,2l6.1,2l-8.4,1.3l-4.7,0.7l-23.7,3.7l33.6,7l2.2,0.5
		l5.8,1.2l-8.7,2.4l-0.5,0.2l-16.2,4.4l-10.9,3l5.8,0.2l28.2,1.2l1.5,0.1l5.4,0.2l-25.8,9.4l12,0l2,0L313,231h2.8
		c-2.8-17.1-3.1-33-2-47.3l-2.3,2.3l2.4-4.1c0.5-6.2,1.4-12,2.4-17.6l-10,10.8l13.4-26c1.2-4.6,2.6-8.9,4-12.9L303.5,159l28.1-50.8
		l-30.7,36.5l24.6-44.5c-0.8,0-1.7,0.1-2.5,0.2l-25.6,27.8l16.1-26.8c-2.3,0.3-4.6,0.6-6.8,1l-8.1,8.3l5.9-7.9
		c-5.3,0.9-10.6,2-15.7,3.4l4.4,7l-7.7-6.2c-2.2,0.6-4.4,1.4-6.5,2l11.8,15.2l-24.5-10.7c-1.2,0.5-2.3,0.9-3.6,1.4l29.4,24.6
		L259.9,128z"/>
	<path class="st20" d="M309.4,237.3l-9.8,6.4l15.3-1.4l3.2-0.3c-0.7-3.1-1.3-6.2-1.8-9.2l-1.5,1L309.4,237.3z"/>
	<path class="st21" d="M144.6,231.5c0,0,49,100.8,185.7,107.2C193.6,345.1,144.6,446,144.6,446l-6,3.4
		c-18.9-32.6-29.7-70.3-29.7-110.6c0-40.3,10.8-78.1,29.7-110.6L144.6,231.5z"/>
	<path class="st5" d="M176.2,344.3h1.4c4.3-12.7,6.4-28.2,0.7-44.2c-0.3,0.4-0.7,0.7-1,1.1C182.7,316.8,180.6,331.9,176.2,344.3"/>
	<path class="st5" d="M149.8,259.8c-3.6-5.5-6.1-11.1-7.6-16.7l-1.5-0.8c1.5,6.4,4.3,12.6,8.4,18.8
		C149.3,260.6,149.5,260.2,149.8,259.8"/>
	<path class="st5" d="M176.9,299.8c0.3-0.4,0.6-0.8,1-1.1c-3.2-8.4-8.5-16.8-16.8-25.1c-4.2-4.1-7.6-8.4-10.6-12.7
		c-0.2,0.4-0.5,0.8-0.8,1.2c2.9,4.2,6.4,8.3,10.4,12.4C168.5,282.9,173.8,291.4,176.9,299.8"/>
	<path class="st5" d="M202.6,344.3h1.3c0.7-9-1.8-19.2-11.4-28.8c-6.1-6.1-9.7-12.5-10.9-18.9c-0.3,0.3-0.5,0.6-0.8,0.9
		c-0.1,0.1-0.2,0.2-0.3,0.3c1.4,6.4,5.1,12.6,11.1,18.7C200.9,325.7,203.3,335.5,202.6,344.3"/>
	<path class="st5" d="M180.1,296.1c0.4-0.4,0.8-0.8,1.2-1.2c-0.2-1.4-0.2-2.7-0.2-4.1c0-0.5,0.2-1,0.2-1.5c-0.4-0.3-0.8-0.7-1.2-1.1
		c-0.1,0.8-0.3,1.6-0.3,2.5C179.7,292.5,179.9,294.3,180.1,296.1"/>
	<path class="st5" d="M180.1,296.1c-0.1,0.1-0.2,0.3-0.3,0.4c-0.8,0.7-1.3,1.5-1.9,2.3c-0.4,0.3-0.7,0.7-1,1.1
		c-13.8,16.7-8,34.3-2.5,44.4h1.4c-5.4-9.6-11.4-26.8,1.5-43.1c0.3-0.4,0.7-0.8,1-1.1c0.6-0.8,1.3-1.6,2.1-2.4
		c0.1-0.1,0.2-0.2,0.3-0.3c0.3-0.3,0.5-0.6,0.8-0.9c1.3-1.3,2.4-2.7,3.5-4c-0.4-0.3-0.7-0.6-1-0.8c-0.9,1.1-1.8,2.2-2.7,3.2
		C180.9,295.3,180.6,295.7,180.1,296.1"/>
	<path class="st5" d="M149,261c-8.8,13.3-12.9,27.1-12,41.4c1,16.5,8.6,30.9,16.6,41.9h1.6c-8.1-10.9-15.9-25.4-17-42
		c-0.9-13.8,3-27.3,11.5-40.1c0.2-0.4,0.5-0.8,0.7-1.2c0.8-1.2,1.7-2.3,2.6-3.5c-0.2-0.4-0.5-0.8-0.8-1.1c-0.8,1.1-1.8,2.2-2.5,3.4
		C149.5,260.2,149.3,260.6,149,261"/>
	<g class="st22">
		<g>
			<defs>
				<rect id="SVGID_5_" x="119.2" y="319.9" width="129.3" height="107.7"/>
			</defs>
			<clipPath id="SVGID_6_">
				<use xlink:href="#SVGID_5_"  style="overflow:visible;"/>
			</clipPath>
			<g class="st23">
				<defs>
					<rect id="SVGID_7_" x="122.1" y="324.8" width="116" height="94.8"/>
				</defs>
				<clipPath id="SVGID_8_">
					<use xlink:href="#SVGID_7_"  style="overflow:visible;"/>
				</clipPath>
				<path class="st24" d="M227.9,324.8c-1.4,1.6-19.3,22-19.3,22h-57.1c0,0-17.9-20.4-19.2-22c-1.5,1-8.9,5.8-10.2,6.7
					c0.5,1.4,21.9,61.7,31.2,88.1c11.2-16.2,35.1-43.9,75.6-62.4c5.1-14.3,8.9-25.1,9.2-25.7C236.7,330.6,229.3,325.8,227.9,324.8"
					/>
			</g>
		</g>
	</g>
	<path class="st25" d="M227.4,321.5c0,0-19.2,22-20,22.8h-3.6h-1.3h-24.9h-1.4H176h-1.6h-19.1h-1.6h-0.9
		c-0.8-0.9-20.1-22.8-20.1-22.8l-13.7,9c0,0,23.5,66.3,32.6,91.8c0.6-0.8,1.1-1.7,1.7-2.6c-9.4-26.4-30.7-86.7-31.2-88.1
		c1.3-0.9,8.7-5.7,10.2-6.7c1.3,1.6,19.2,22,19.2,22h57.1c0,0,17.9-20.4,19.3-22c1.4,1,8.8,5.8,10.1,6.7c-0.2,0.6-4.1,11.4-9.2,25.7
		c1.1-0.5,2.2-1,3.3-1.5c5.1-14.5,9-25.3,9-25.3L227.4,321.5z"/>
	<path class="st26" d="M346.9,582.6l-0.2,7C263.6,589.5,190.8,544.3,152,477l6.1-3.4c0,0,113.8,8,188.9-109.1
		C283,488.2,346.9,582.6,346.9,582.6"/>
	<path class="st6" d="M232.2,520.2c0-2.3,1.9-4.2,4.2-4.2h14.5c2.3,0,4.2-1.9,4.2-4.2v-15.7c0-2.3,1.9-4.2,4.2-4.2h17.8
		c2.4,0,4.2,1.9,4.2,4.2v15.7c0,2.3,1.9,4.2,4.2,4.2h14.5c2.3,0,4.2,1.9,4.2,4.2v14.7h11.6c0.4,0,0.7-0.1,1-0.2
		c-2-7.2-3.9-15.2-5.1-23.9h-10.9c-2.3,0-4.2-1.9-4.2-4.2v-15.7c0-2.3-1.9-4.2-4.2-4.2H278c-2.3,0-4.2-1.9-4.2-4.2v-15.7
		c0-2.3-1.9-4.2-4.2-4.2h-17.9c-0.2,0-0.4,0.1-0.6,0.2c-0.8,0.4-1.6,0.8-2.3,1.1c-0.8,0.7-1.2,1.8-1.2,3v15.7c0,2.3-1.9,4.2-4.2,4.2
		h-14.5c-2.3,0-4.2,1.9-4.2,4.2v15.7c0,2.3-1.9,4.2-4.2,4.2h-15c-2.3,0-4.2,1.9-4.2,4.2v12.9c2.5,2.4,5.1,4.8,7.8,7h23.2V520.2z"/>
	<path class="st12" d="M327.1,562c-2.7-5.6-5.8-13-8.6-21.9h-10c-2.3,0-4.2-1.9-4.2-4.2v-0.9v-14.7c0-2.3-1.9-4.2-4.2-4.2h-14.5
		c-2.3,0-4.2-1.9-4.2-4.2v-15.7c0-2.3-1.9-4.2-4.2-4.2h-17.8c-2.3,0-4.2,1.9-4.2,4.2v15.7c0,2.3-1.9,4.2-4.2,4.2h-14.5
		c-2.3,0-4.2,1.9-4.2,4.2v14.7v0.9c0,2.3-1.9,4.2-4.2,4.2h-12.7c12.3,9.7,25.9,17.8,40.4,24.1h67.7
		C325.1,564.2,326.4,563.3,327.1,562"/>
	<path class="st27" d="M565.5,473l6,3.5c-39.4,68.3-113.2,114.3-197.8,114.3h-0.2l0.2-7.1c0,0,64.9-95.9,0-221.4
		C450,481.2,565.5,473,565.5,473"/>
	<path class="st28" d="M496.9,474.7c1.1-0.6,2.2-1.2,3.5-1.9c-0.2,0-0.4-0.1-0.6-0.2c-1.4,0.9-2.4,1.6-2.9,2L496.9,474.7z"/>
	<path class="st29" d="M436.2,527.8c0,0-0.3,0.9-1.8,3.3c0.2,0,0.4,0,0.6,0C435.7,529.7,436.2,528.6,436.2,527.8"/>
	<path class="st29" d="M433.1,535c-0.3-0.2-0.7-0.4-0.9-0.6c-1.5,2-3.3,4.4-6,7.5c-8.5,10.1-20.9,24.9-27.9,28.7
		c-4.1,2.2-7.3,4.5-9.2,6.2l-0.1,2.7c3.4-0.3,12.3-3.8,20.3-11.1C416.4,561.9,427.7,545.2,433.1,535"/>
	<path class="st29" d="M430.7,532.7c-0.2-0.4-0.3-0.7-0.3-0.9c-5.7,5.1-17.2,15.4-26.4,23.5c-2.8,2.5-5.3,4.3-7.6,5.8
		c-1.2,2.6-2.3,4.8-3.3,6.6c1.1-0.6,2.4-1.2,3.6-1.9C403.7,562.1,423,541.7,430.7,532.7"/>
	<path class="st29" d="M432.1,531c0.9-1.2,1.6-2,1.7-2.4c0,0-1,0.9-2.8,2.5C431.4,531,431.7,531,432.1,531"/>
	<path class="st29" d="M477.5,487.6c0.7-0.3,3.1-2,6.3-4.5c0.5-0.5,1-1.1,1.5-1.7C480.8,485.2,477.5,487.6,477.5,487.6"/>
	<path class="st28" d="M402.5,546.4c-0.5,1.4-1,2.8-1.5,4c4.7-2.6,8.4-5,10.1-6.7C411,543.7,407.4,544.7,402.5,546.4"/>
	<path class="st28" d="M412.3,523.2c-0.8,0.2-1.9,0.6-3.3,1.1c-0.1,0.3-0.1,0.6-0.2,0.9C412.1,523.7,413.8,522.7,412.3,523.2"/>
	<path class="st29" d="M475.1,463.1c-0.1-0.1-0.3-0.2-0.5-0.3c-0.5,1.2-0.9,2.1-1.1,2.8C473,467,473.7,465.8,475.1,463.1"/>
	<path class="st29" d="M456.1,453c-0.5-0.3-1-0.6-1.5-1c0.6,5.1,1.5,9.2,1.5,9.2C456.1,459.8,456.1,456.9,456.1,453"/>
	<path class="st28" d="M430.8,434.5c-2.4-2.1-4.9-4.3-7.3-6.6c7.4,13.5,18,32.3,18,32.3C439.9,456.5,435.5,445.2,430.8,434.5"/>
	<path class="st29" d="M430.7,474.2c-3.3-4.7-7.3-10.4-15.3-17.6c-1.1-1-2.5-2.3-4.1-3.9c0.3,2,0.6,3.9,0.8,5.9
		c1.5,1.4,3.1,2.7,4.5,4C429.5,473.8,430.7,474.2,430.7,474.2"/>
	<path class="st28" d="M413.7,483.3c0,0.3,0,0.6,0,0.8c3.6,1,6.2,1.8,6.2,1.8C419.2,485.7,416.8,484.7,413.7,483.3"/>
	<path class="st29" d="M406.4,534.4c-0.5,1.7-1,3.4-1.5,5.1c2.1-1.3,4.3-2.7,6.4-4.1C409.1,535.2,407.2,534.9,406.4,534.4"/>
	<path class="st29" d="M435,516.5c0,0-12.4,6.5-28,15.6c0,0.2-0.1,0.3-0.1,0.5c2.2-1.2,6.8-1.2,12-2.5
		C426.7,524.6,433.1,519.3,435,516.5"/>
	<path class="st10" d="M411.3,512.2l0,0.2c0.2,0,0.3-0.1,0.5-0.1C411.6,512.3,411.5,512.2,411.3,512.2"/>
	<path class="st28" d="M413.2,468.2c0,0.6,0.1,1.2,0.1,1.8c3.4,2.5,6.8,4.9,9.8,6.9C419.9,474,416.2,470.7,413.2,468.2"/>
	<path class="st29" d="M429.7,462.4c0,0,0.2-0.4,0.3-1.3c-1-1.2-1.9-2.4-2.8-3.5C428.6,459.7,429.5,461.4,429.7,462.4"/>
	<path class="st29" d="M419.1,442.1c-4.4-5.9-10-13.7-15.2-20.8c0.8,2.7,1.6,5.3,2.3,7.9c2,2.4,3.9,4.9,5.9,7.4
		C413.8,437.9,416.3,439.8,419.1,442.1"/>
	<path class="st30" d="M456,472.3c0.1-2-2.5-12.2-5.9-23.2c-1.9-1.2-3.8-2.6-5.8-4c0.5,1.6,1.1,3.2,1.8,5
		C451.1,463.5,455.7,479.5,456,472.3"/>
	<path class="st30" d="M488.2,468.6c-1.3-0.5-2.6-1-3.8-1.5c-6.5,10.2-11.6,19.6-11.6,19.6C474.7,486.6,481.6,477.9,488.2,468.6"/>
	<path class="st30" d="M415.6,513.4c10.7,3,27-7.8,32.1-12.1c0,0-23.5,8.3-30.6,7.4c-1.4-0.2-3.2-0.6-5.1-1c-0.3,1.5-0.5,3-0.7,4.5
		c0.2,0,0.2,0.1,0.4,0.1C413,512.7,414.3,513.1,415.6,513.4"/>
	<path class="st29" d="M446.1,495.8c0,0-13.3-4.9-21.5-7.5c-2.3-0.7-6.3-1.7-11-2.9c0,2.2-0.2,4.3-0.2,6.4
		C427.4,494.9,442.9,497.2,446.1,495.8"/>
	<path class="st29" d="M410.8,435.7c-3.6-2.9-1.1,1.9,4.5,7.6c2,1.9,6.7,7.6,12,14.4c0.9,1.1,1.9,2.3,2.8,3.5
		c8.5,10.9,17.8,23.4,21,28.8c-2.9-5.3-12.5-23.3-16.3-31.1c-2.7-5.6-9.8-12-15.7-16.8c-2.8-2.3-5.3-4.2-7-5.4
		C411.6,436.3,411.1,435.9,410.8,435.7"/>
	<path class="st29" d="M451.1,490c0.5,1,0.8,1.6,0.8,1.6C451.7,491.2,451.4,490.6,451.1,490"/>
	<path class="st30" d="M465,469.7c0.4-2,0.9-6.2,1.3-10.9c-1-0.5-1.9-1.1-3-1.6c-0.9,12.4-6.7,31.7-9,37
		C456.6,489.9,463.8,476,465,469.7"/>
	<path class="st30" d="M454.3,494.2c-0.4,0.8-0.8,1.4-0.8,1.4C453.7,495.4,454,494.8,454.3,494.2"/>
	<path class="st29" d="M413.1,497.2c-0.1,0.7-0.1,1.3-0.2,2c5.9-0.4,9.4-1.6,9.4-1.6C421.1,497.8,417.6,497.6,413.1,497.2"/>
	<path class="st10" d="M470.2,478.8c-1,3.2-3.2,7.3-5.4,10.7c4.7-5.2,13.4-15.6,16.1-23.7c-1.2-0.5-2.5-1.1-3.7-1.6
		c-0.1,0.4-0.2,0.9-0.3,1.3C475.9,468.5,473.1,473.8,470.2,478.8"/>
	<path class="st10" d="M428.4,480.4c-1.6-1-3.4-2.2-5.3-3.5c-3-2-6.4-4.4-9.8-6.9c0.2,2.2,0.2,4.3,0.3,6.4
		c15.4,8.8,34,17.8,36.3,18.6C449.9,494.9,440.7,488.1,428.4,480.4"/>
	<path class="st30" d="M421,535.1c9-1.3,28.1-23.2,31-31c0,0-13.6,13.6-22.5,20.9c-3.4,2.8-7.2,4.3-10.6,5.2
		c-5.2,1.3-9.8,1.3-12,2.5c-0.2,0.6-0.4,1.1-0.5,1.7c0.8,0.5,2.7,0.8,4.8,1C414.2,535.6,417.8,535.5,421,535.1"/>
	<path class="st28" d="M481.8,519c0.7,0.3,1.6,0.8,2.7,1.3h0.5C483.8,519.8,482.7,519.4,481.8,519"/>
	<path class="st28" d="M494.6,525c-0.1-0.1-0.1-0.1-0.1-0.1l-0.2,0C494.4,524.9,494.5,524.9,494.6,525"/>
	<path class="st28" d="M481.8,519c-1.1-0.5-1.7-0.8-1.7-0.8C480.6,518.4,481.1,518.7,481.8,519"/>
	<path class="st28" d="M519.2,530L519.2,530c-1.3,1.4-10.2-1.3-19-4.8c-0.7-0.2-1.4-0.4-2.2-0.6c0.9,0.8,1.7,1.6,2.3,2.2
		c0.4,0.5,0.9,0.9,1.4,1.4c0.9,0.4,1.8,0.8,2.6,1.1c3.2,1.3,7.5,2.6,11.8,3.6c1.1-1,2.2-1.9,3.3-2.9
		C519.4,530.1,519.3,530.1,519.2,530"/>
	<path class="st28" d="M492.9,503.9c0,0,16.6,4.2,25.6,7c4.1,1.3,11.1,2,17.9,1.9c1.4-1.6,2.8-3.4,4.2-5.1
		C528.4,509.1,497.9,504.5,492.9,503.9"/>
	<path class="st29" d="M513.4,476.1c-0.4,0-0.7-0.1-1.1-0.2c-4.8,2-8.1,3.5-8.1,3.5C505.7,478.7,509.1,477.6,513.4,476.1"/>
	<path class="st29" d="M476.7,537.5c2.4,5.7,5.2,12,6.8,15.8c0.3,0.6,0.6,1.4,0.9,2.1c0.7-0.5,1.6-0.8,2.3-1.3
		c-3-7.3-6.6-13.7-9.6-18.8C477,536.1,476.9,536.9,476.7,537.5"/>
	<path class="st29" d="M471.3,524.8c0,0,0.5,1.1,1.2,2.9c0-0.2-0.1-0.3-0.1-0.4C471.9,526.4,471.5,525.5,471.3,524.8"/>
	<path class="st30" d="M471.9,513.1c0,0,4.4,6.7,11.8,14.8c3.8,4.3,10.9,11.1,17.2,17c0.6-0.5,1.3-0.9,2-1.4
		C494.4,536.3,477.9,519,471.9,513.1"/>
	<path class="st29" d="M479.9,511c0.9,0.8,2.4,2.4,4.4,4.2c2.6,1.4,5.2,2.5,7.4,3.6c-3.9-3.4-8.3-7.2-12.2-10.7
		c-1-0.2-2-0.4-2.9-0.6C477.7,508.8,478.9,510,479.9,511"/>
	<path class="st29" d="M468.1,498.4c0,0,1.2,1.4,3.1,3.4c0.3,0.1,0.7,0.1,1,0.1C469.7,499.8,468.1,498.4,468.1,498.4"/>
	<path class="st29" d="M500.4,526.8c-0.6-0.6-1.4-1.3-2.3-2.2c-0.1-0.2-0.3-0.3-0.4-0.4c-0.1-0.1-0.3-0.1-0.3-0.1
		c-0.9,0.4-1.9,0.7-2.9,0.7c0,0,0.1,0,0.1,0.1c5.2,4.9,10.7,10,14.9,13.6c0.7-0.6,1.3-1.1,2-1.7c-2.7-2.3-6.3-5.5-9.6-8.7
		C501.3,527.8,500.8,527.3,500.4,526.8"/>
	<path class="st29" d="M501.1,512.1c-0.9-0.5-2.5-1.4-4.4-2.4c-0.2,0.1-0.5,0.1-0.9,0.3c-0.5,0.2-1.3,0.2-2.4,0.2
		c10.2,7.4,8.8,4.5,16.5,9.3c5,3.1,11.4,4.9,15.3,5.2c0.8-0.8,1.6-1.5,2.4-2.3c-3-1.8-10.7-2.7-14.2-4.2
		C513.4,518.1,506,514.5,501.1,512.1"/>
	<path class="st29" d="M475,496.8c0,0,2.7,1.8,9.7,6.9c0.9,0.1,1.8,0.2,2.6,0.4C480.9,500.3,475,496.8,475,496.8"/>
	<path class="st29" d="M487.1,496.9c4.5,1.5,10,3.1,17.2,4.5c15.4,3,35.4,6.7,34.7,3.7c-0.6-2.7-27.7-6.5-39.1-8.6
		C495.8,496.8,491.4,496.9,487.1,496.9"/>
	<path class="st29" d="M480.4,494.4c1.9-0.2,3.8-0.2,5.3-0.2h2.4c-5.5-1-11-1.9-13.2-2.2c-0.1,0-0.2,0.1-0.3,0.1
		C476.4,492.8,478.3,493.6,480.4,494.4"/>
	<path class="st28" d="M554.5,487.8c0.9-1.3,1.7-2.7,2.5-4.1c-5.3,1.7-11.9,2.7-11.9,2.7C547.9,487.3,551.2,487.8,554.5,487.8"/>
	<path class="st29" d="M489.2,485.4c0,0,3.7,1.4,12.1,2.7c2.8,0.5,7.4,0.9,12.4,1.3c1.6-0.7,3.2-1.5,4.8-2.4
		C512.2,487.1,489.2,485.4,489.2,485.4"/>
	<path class="st29" d="M537.2,490c3.8-0.8,1.9-1.9-1.1-3.4c0,0-5.4,0.1-10.7,0.2c-1.3,0.8-3.1,1.8-5.1,3
		C528,490.2,535.2,490.4,537.2,490"/>
	<path class="st30" d="M462.1,525.8c0,1.6,8.9,26.7,9,33.9c0,0.8,0.1,1.6,0.1,2.5c1-0.5,2-0.9,3.1-1.4c-3.2-12.5-11.7-36-12.8-42.5
		C461.6,518.3,462.2,524.3,462.1,525.8"/>
	<path class="st30" d="M452.9,528.9c0-1.3-0.1-2.6-0.2-3.8c-0.2,0.1-0.4,0.2-0.6,0.3c-0.1,2-0.2,4.2-0.3,6.6
		c0.3-0.6,0.5-1.2,0.7-1.9C452.7,529.8,452.8,529.4,452.9,528.9"/>
	<path class="st30" d="M453.8,565.2c-0.1-7.5-0.3-18.4-0.6-28.2c-0.6,1.9-1.2,3.6-2,5c-0.2,2.8-0.4,5.4-0.6,7.2
		c-0.9,8.4-1.1,16.7-0.5,21.2v0.1c1.1-0.3,2.2-0.6,3.3-1C453.1,568.5,453.3,567,453.8,565.2"/>
	<path class="st28" d="M444.6,534.3c-0.7,0.6-1.5,0.9-2.4,1.2v0.1c-2.9,10-6.5,21.5-9.7,27.2c-2.8,5-5.9,10.1-8.3,14.3
		c1.8-0.3,3.5-0.6,5.3-1c1.9-3,3.8-6.2,5.5-9.2C438.2,561.6,442.1,546.7,444.6,534.3"/>
	<path class="st28" d="M446.1,526.6c0.7-4.4,1.2-7.9,1.1-9.5c0,0-0.4,1.5-1,3.9c-0.3,2.3-0.7,4.7-1.4,7.2
		C445.3,527.8,445.7,527.2,446.1,526.6"/>
	<path class="st29" d="M499.9,522.2c-0.4,0.4-0.9,0.9-1.4,1.3c-0.3,0.3-0.8,0.5-1.2,0.7c0.1,0,0.2,0.1,0.3,0.1
		c0.8,0.3,1.7,0.6,2.6,1c8.8,3.4,17.6,6.1,19,4.8v-0.1C520.8,528,507.5,524.7,499.9,522.2"/>
	<path class="st29" d="M494.4,520.1c-0.8-0.4-1.8-0.8-2.7-1.2c-2.3-1.1-4.8-2.3-7.5-3.6c-6.6-3.4-13.6-7.3-17.2-10.2
		c0,0-0.1,0-0.2-0.1c2.1,1.7,10.4,8.6,16.2,12.4c1.3,0.8,3.2,1.8,5.5,3C490.5,520.3,492.5,520.2,494.4,520.1"/>
	<path class="st29" d="M473,531.8c-3.6-9.4-7.7-18.3-9.7-21.1c0,0,5.5,15.1,9.4,25.9C473,535.2,473.1,533.6,473,531.8"/>
	<path class="st29" d="M475.6,538.9c-0.6,0.6-1.1,1.1-1.6,1.4c0.9,2.4,1.6,4.3,1.9,5.5c1.2,3.3,0.3,9.3-0.5,14.2
		c1.7-0.8,3.4-1.8,5-2.7c-0.1-0.6-0.1-1.2-0.2-1.9C480,552.2,478.1,545.8,475.6,538.9"/>
	<path class="st10" d="M456.5,521.3c-0.2,1.8-0.5,3.6-0.8,5.4c0.2,2.3,0.5,4.6,0.7,6.5c1,7.9-0.1,19.4-0.2,22.3
		c-0.1,2.7-1.5,6.6-2.3,9.7c-0.5,1.8-0.7,3.4-0.4,4.3c1.4-0.5,2.7-1,4.1-1.6c1.5-2.3,3-6.2,3.5-11.4
		C461.7,549.5,458.7,532.8,456.5,521.3"/>
	<path class="st30" d="M480.4,494.4c-6.2,0.4-13.3,1.4-13.3,1.4s9.4,0.9,20.1,1.1c4.2,0,8.7-0.1,12.8-0.3c6.3-0.5,11.8-1.5,14.8-3.3
		c2-1.3,3.8-2.4,5.5-3.3c2.1-1.2,3.8-2.2,5.1-3c3-1.8,4.3-2.8,3.2-3.9c-1.2-1.2-5.5,1.5-10.1,4.1c-1.6,0.9-3.2,1.7-4.8,2.4
		c-0.6,0.3-1.2,0.5-1.8,0.8c-6.1,2.2-16.9,3.8-23.8,4h-2.4C484.1,494.2,482.2,494.2,480.4,494.4"/>
	<path class="st30" d="M444.8,528.2c0.7-2.5,1.2-4.9,1.4-7.2c0.2-1.3,0.3-2.6,0.3-3.9c0,0-1.9,6.7-4.1,12.8c0.1-0.1,0.2-0.1,0.3-0.1
		C443.4,529.4,444.1,528.9,444.8,528.2"/>
	<path class="st30" d="M439.9,536.2c-0.3,0.5-0.5,1.1-0.8,1.5C436,543.9,424,558.1,420,562c-3.9,3.9-16.9,12.5-12.4,13.2
		c4.5,0.6,10-6.3,16.1-10.2c4.2-2.7,13.1-15.8,18.5-29.3v-0.1C441.5,535.9,440.7,536,439.9,536.2"/>
	<path class="st30" d="M476.6,507.6c0.9,0.2,1.9,0.4,2.9,0.6c5.2,1,10.7,1.8,13.9,1.9c1.1,0,1.9-0.1,2.4-0.2
		c0.4-0.2,0.6-0.2,0.9-0.3c2.5-0.8,2-0.5-2.3-3.5c-1.2-0.8-3.8-1.5-7.2-2.1c-0.8-0.2-1.7-0.3-2.6-0.4c-3.9-0.7-8.3-1.2-12.4-1.7
		c-0.3,0-0.7-0.1-1-0.1c-6.6-0.8-12.2-1.7-13.3-2.8c0,0,5.6,4.1,8.9,5.8l0.1,0c0.1,0,0.1,0.1,0.1,0.1
		C468.5,505.7,472.2,506.7,476.6,507.6"/>
	<path class="st29" d="M455.6,526.7c0.3-1.8,0.6-3.6,0.8-5.4c0.9-7.9,1-14.9-0.2-16.2c0,0-0.1,1.1-0.3,2.7c0,0.1,0.1,0.1,0.1,0.1
		c1.2,5.3,1,11.2-1.7,15.4c-0.2,0.2-0.2,0.3-0.3,0.5c-0.4,1.9-0.7,3.7-1.1,5.1c-0.1,0.5-0.2,0.9-0.3,1.3c-0.2,0.6-0.5,1.2-0.7,1.9
		c-2.7,6.2-8.8,13.9-9.6,18.1c-0.9,4.5,2.7,1.8,8.1-6.6c0.3-0.5,0.6-1,0.8-1.6c0.7-1.4,1.4-3.1,2-5
		C454.2,533.9,454.9,530.4,455.6,526.7"/>
	<path class="st30" d="M479.1,530.4c0,0,9.9,13,13.6,17.5c0.4,0.4,0.8,1.1,1.4,1.8c0.4-0.3,0.8-0.5,1.2-0.7
		c-6.8-8.6-13.5-16.7-16.8-20L479.1,530.4z"/>
	<path class="st30" d="M439.9,573.7c0.6-0.2,1.3-0.3,2-0.6c1.3-8.2,2.1-15.8,2.2-18.9C444.1,554.2,441.9,564.5,439.9,573.7"/>
	<path class="st29" d="M430.8,532.8c0.3,0.6,0.8,1.1,1.4,1.5c0.3,0.2,0.6,0.4,0.9,0.6c1.8,1,4.2,1.5,6.8,1.2
		c0.8-0.1,1.6-0.3,2.3-0.6c0.8-0.3,1.6-0.7,2.3-1.2c1.3-0.8,2.5-2,3.5-3.7c4.8-8.3,3.7-21.4,3.7-21.4c-0.1,4.3-2,12.5-5.7,17.4
		c-0.4,0.6-0.8,1.2-1.3,1.6c-0.7,0.7-1.4,1.2-2.1,1.6c-0.1,0.1-0.2,0.1-0.3,0.1c-2.4,1.2-5.1,1.3-7.3,1.1c-0.2,0-0.4,0-0.6,0
		c-0.9,0-1.7-0.1-2.3-0.1c-0.4,0-0.8,0-1,0.1c-0.4,0.1-0.7,0.3-0.7,0.6c0,0.2,0.1,0.6,0.3,0.9C430.8,532.7,430.8,532.7,430.8,532.8"
		/>
	<path class="st29" d="M475.9,538.7c0.3-0.3,0.6-0.8,0.8-1.2c0.3-0.6,0.4-1.4,0.4-2.2c0.4-7.7-7.9-22.7-10.8-25.5
		c0,0,2.6,4.9,4.7,11.6c0.6,2,1.1,3.9,1.4,5.8c0,0.2,0,0.3,0.1,0.4c0.2,1.4,0.4,2.8,0.5,4.1c0.1,1.9,0,3.4-0.3,4.7
		c-0.1,0.4-0.1,0.8-0.2,1.1c-1,3-1.5,5.3,1.6,2.7c0.4-0.3,0.9-0.8,1.6-1.4C475.7,538.9,475.8,538.8,475.9,538.7"/>
	<path class="st10" d="M498.5,523.5c0.5-0.4,0.9-0.8,1.4-1.3c3.1-3.2,3.7-6.1,0.6-3.7c-1.1,0.9-3.4,1.3-6.2,1.6
		c-1.8,0.1-3.8,0.2-5.7,0.2c-1.3,0-2.6,0-3.7,0h-0.5c-2.4-0.1-4-0.2-4-0.2c3.6,2.4,9.4,4.9,13.8,4.7l0.2,0c1-0.1,2-0.3,2.9-0.7
		C497.8,523.9,498.2,523.8,498.5,523.5"/>
	<path class="st10" d="M483.8,483.1c-1.4,1.5-2.7,2.7-3.7,3.3c-4.6,2.6-15,6-18.1,7c-0.1,0.1-0.1,0.2-0.2,0.3c1.8,0,7-0.2,12.8-1.6
		c0.1,0,0.2-0.1,0.3-0.1c5.3-1.3,11-3.6,14.8-7.7c2.7-2.9,5.2-6.4,7.2-9.6l0-0.1c0.5-0.8,0.9-1.6,1.4-2.4c-1.4-0.5-2.9-0.9-4.4-1.4
		c-2.8,3.5-5.8,7.5-8.6,10.7C484.8,482,484.4,482.6,483.8,483.1"/>
	<path class="st29" d="M454,523.9c0.1-0.2,0.2-0.3,0.3-0.5c2.7-4.3,3-10.2,1.7-15.3c0,0,0-0.1-0.1-0.2c-1.3-5-3.2-6.9-3.2-6.9
		c1.6,2.4,1.4,14.6-0.8,19.3c-1.6,3.3-1.1,5.5,0.3,5.2c0.2-0.1,0.4-0.2,0.6-0.3C453.2,524.9,453.6,524.4,454,523.9"/>
	<path class="st29" d="M464.8,489.5c2.2-3.4,4.4-7.5,5.4-10.7c0.4-1.2,0.6-2.3,0.6-3.3c-0.1-5.5,2.1-13.3-1.4-10.6
		c-3.5,2.7-2.6,11.4-3.7,16.5c-1.1,5.1-6.8,14.9-6.8,14.9c0.7-0.3,1.7-1.3,2.7-2.6c0.1-0.1,0.2-0.2,0.3-0.3
		C462.9,492.3,463.9,491,464.8,489.5"/>
</g>
</svg>
